<mxfile>
    <diagram id="vfi_0wmEHBzz8h3zsE1r" name="Page-1">
        <mxGraphModel dx="2514" dy="1674" grid="1" gridSize="10" guides="1" tooltips="1" connect="1" arrows="1" fold="1" page="1" pageScale="1" pageWidth="850" pageHeight="1100" math="0" shadow="0">
            <root>
                <mxCell id="0"/>
                <mxCell id="1" parent="0"/>
                <mxCell id="3" value="Android Motion System" style="rounded=0;whiteSpace=wrap;html=1;fillColor=#f5f5f5;strokeColor=#666666;fontColor=#333333;horizontal=1;verticalAlign=top;fontSize=31;" parent="1" vertex="1">
                    <mxGeometry x="-910" y="-370" width="2091" height="1610" as="geometry"/>
                </mxCell>
                <mxCell id="11" value="&lt;font color=&quot;#000000&quot;&gt;Fundation of the android animation&amp;nbsp; &amp;nbsp; &amp;nbsp;&amp;nbsp;&lt;/font&gt;" style="rounded=1;whiteSpace=wrap;html=1;shadow=0;glass=0;sketch=0;gradientColor=none;fontSize=16;fillColor=none;strokeColor=#000000;strokeWidth=2;verticalAlign=top;align=right;" parent="1" vertex="1">
                    <mxGeometry x="20" y="120" width="500" height="330" as="geometry"/>
                </mxCell>
                <mxCell id="65" style="edgeStyle=orthogonalEdgeStyle;rounded=0;orthogonalLoop=1;jettySize=auto;html=1;exitX=0;exitY=0.5;exitDx=0;exitDy=0;entryX=1;entryY=0.5;entryDx=0;entryDy=0;startSize=6;strokeColor=#000000;strokeWidth=2;fontSize=16;fontColor=#000000;" parent="1" source="2" target="63" edge="1">
                    <mxGeometry relative="1" as="geometry">
                        <Array as="points">
                            <mxPoint x="-90" y="215"/>
                            <mxPoint x="-90" y="810"/>
                        </Array>
                    </mxGeometry>
                </mxCell>
                <mxCell id="2" value="Property Animations" style="rounded=1;whiteSpace=wrap;html=1;fillColor=#1ba1e2;fontColor=#ffffff;strokeColor=none;fontSize=16;" parent="1" vertex="1">
                    <mxGeometry x="70" y="170" width="170" height="90" as="geometry"/>
                </mxCell>
                <mxCell id="4" value="Animate drawable graphics" style="rounded=0;whiteSpace=wrap;html=1;fillColor=#647687;fontColor=#ffffff;fontSize=16;strokeColor=none;glass=0;sketch=0;shadow=0;" parent="1" vertex="1">
                    <mxGeometry x="310" y="360" width="170" height="60" as="geometry"/>
                </mxCell>
                <mxCell id="9" style="edgeStyle=orthogonalEdgeStyle;rounded=0;orthogonalLoop=1;jettySize=auto;html=1;exitX=1;exitY=0.5;exitDx=0;exitDy=0;entryX=0;entryY=0.5;entryDx=0;entryDy=0;fontSize=16;strokeColor=#000000;" parent="1" source="5" target="6" edge="1">
                    <mxGeometry relative="1" as="geometry"/>
                </mxCell>
                <mxCell id="10" style="edgeStyle=orthogonalEdgeStyle;rounded=0;orthogonalLoop=1;jettySize=auto;html=1;entryX=0;entryY=0.5;entryDx=0;entryDy=0;strokeColor=#000000;fontSize=16;" parent="1" source="5" target="4" edge="1">
                    <mxGeometry relative="1" as="geometry"/>
                </mxCell>
                <mxCell id="5" value="View Animation" style="rounded=1;whiteSpace=wrap;html=1;fillColor=#1ba1e2;fontColor=#ffffff;strokeColor=none;fontSize=16;" parent="1" vertex="1">
                    <mxGeometry x="70" y="300" width="170" height="90" as="geometry"/>
                </mxCell>
                <mxCell id="6" value="Tween Animation" style="rounded=0;whiteSpace=wrap;html=1;fillColor=#647687;fontColor=#ffffff;fontSize=16;strokeColor=none;" parent="1" vertex="1">
                    <mxGeometry x="310" y="270" width="170" height="60" as="geometry"/>
                </mxCell>
                <mxCell id="12" value="&lt;font color=&quot;#000000&quot;&gt;Fundation of the android transition&amp;nbsp; &amp;nbsp;&amp;nbsp;&lt;/font&gt;" style="rounded=1;whiteSpace=wrap;html=1;shadow=0;glass=0;sketch=0;gradientColor=none;fontSize=16;fillColor=none;strokeColor=#000000;strokeWidth=2;verticalAlign=top;align=right;" parent="1" vertex="1">
                    <mxGeometry x="-68.75" y="-200" width="647.5" height="240" as="geometry"/>
                </mxCell>
                <mxCell id="45" style="edgeStyle=orthogonalEdgeStyle;rounded=0;orthogonalLoop=1;jettySize=auto;html=1;exitX=0.5;exitY=1;exitDx=0;exitDy=0;entryX=-0.006;entryY=0.4;entryDx=0;entryDy=0;entryPerimeter=0;strokeColor=#000000;fontSize=31;strokeWidth=2;" parent="1" source="13" target="27" edge="1">
                    <mxGeometry relative="1" as="geometry"/>
                </mxCell>
                <mxCell id="13" value="Transition&lt;br&gt;System" style="rounded=1;whiteSpace=wrap;html=1;fontSize=15;fillColor=#f0a30a;strokeColor=none;fontColor=#000000;" parent="1" vertex="1">
                    <mxGeometry x="200" y="-40" width="120" height="60" as="geometry"/>
                </mxCell>
                <mxCell id="22" style="edgeStyle=orthogonalEdgeStyle;rounded=0;orthogonalLoop=1;jettySize=auto;html=1;exitX=0.5;exitY=1;exitDx=0;exitDy=0;entryX=0;entryY=0.5;entryDx=0;entryDy=0;strokeColor=#000000;fontSize=15;" parent="1" source="14" target="13" edge="1">
                    <mxGeometry relative="1" as="geometry"/>
                </mxCell>
                <mxCell id="14" value="Fragment&lt;br&gt;Transition" style="rounded=1;whiteSpace=wrap;html=1;fillColor=#1ba1e2;fontColor=#ffffff;fontSize=15;strokeColor=none;" parent="1" vertex="1">
                    <mxGeometry x="-50" y="-140" width="120" height="60" as="geometry"/>
                </mxCell>
                <mxCell id="23" style="edgeStyle=orthogonalEdgeStyle;rounded=0;orthogonalLoop=1;jettySize=auto;html=1;exitX=0.5;exitY=1;exitDx=0;exitDy=0;entryX=0;entryY=0.25;entryDx=0;entryDy=0;strokeColor=#000000;fontSize=15;" parent="1" source="15" target="13" edge="1">
                    <mxGeometry relative="1" as="geometry"/>
                </mxCell>
                <mxCell id="15" value="ActivityTransition&lt;br&gt;Coordinator" style="rounded=1;whiteSpace=wrap;html=1;fillColor=#1ba1e2;fontColor=#ffffff;fontSize=15;strokeColor=none;" parent="1" vertex="1">
                    <mxGeometry x="80" y="-140" width="120" height="60" as="geometry"/>
                </mxCell>
                <mxCell id="24" style="edgeStyle=orthogonalEdgeStyle;rounded=0;orthogonalLoop=1;jettySize=auto;html=1;exitX=0.5;exitY=1;exitDx=0;exitDy=0;entryX=0.583;entryY=-0.013;entryDx=0;entryDy=0;entryPerimeter=0;strokeColor=#000000;fontSize=15;" parent="1" source="19" target="13" edge="1">
                    <mxGeometry relative="1" as="geometry"/>
                </mxCell>
                <mxCell id="19" value="ActionBar" style="rounded=1;whiteSpace=wrap;html=1;fillColor=#1ba1e2;fontColor=#ffffff;fontSize=15;strokeColor=none;" parent="1" vertex="1">
                    <mxGeometry x="210" y="-140" width="120" height="60" as="geometry"/>
                </mxCell>
                <mxCell id="25" style="edgeStyle=orthogonalEdgeStyle;rounded=0;orthogonalLoop=1;jettySize=auto;html=1;exitX=0.5;exitY=1;exitDx=0;exitDy=0;entryX=1;entryY=0.5;entryDx=0;entryDy=0;strokeColor=#000000;fontSize=15;dashed=1;dashPattern=1 1;" parent="1" source="21" target="13" edge="1">
                    <mxGeometry relative="1" as="geometry"/>
                </mxCell>
                <mxCell id="21" value="..." style="rounded=1;whiteSpace=wrap;html=1;fillColor=#1ba1e2;fontColor=#ffffff;fontSize=15;strokeColor=none;" parent="1" vertex="1">
                    <mxGeometry x="390" y="-140" width="120" height="60" as="geometry"/>
                </mxCell>
                <mxCell id="27" value="" style="rounded=1;whiteSpace=wrap;html=1;fontSize=15;fillColor=none;dashed=1;strokeWidth=3;strokeColor=#FF8000;" parent="1" vertex="1">
                    <mxGeometry x="630" y="-190" width="510" height="640" as="geometry"/>
                </mxCell>
                <mxCell id="72" value="" style="edgeStyle=orthogonalEdgeStyle;rounded=0;orthogonalLoop=1;jettySize=auto;html=1;startSize=6;strokeColor=#000000;strokeWidth=2;fontSize=16;fontColor=#000000;" parent="1" source="29" target="30" edge="1">
                    <mxGeometry relative="1" as="geometry"/>
                </mxCell>
                <mxCell id="29" value="Transition&lt;br&gt;Manager" style="rounded=1;whiteSpace=wrap;html=1;fillColor=#f0a30a;strokeColor=none;fontColor=#000000;fontSize=18;" parent="1" vertex="1">
                    <mxGeometry x="790" y="-180" width="190" height="70" as="geometry"/>
                </mxCell>
                <mxCell id="66" style="edgeStyle=orthogonalEdgeStyle;rounded=0;orthogonalLoop=1;jettySize=auto;html=1;exitX=0;exitY=0.5;exitDx=0;exitDy=0;startSize=6;strokeColor=#000000;strokeWidth=2;fontSize=16;fontColor=#000000;" parent="1" source="30" target="11" edge="1">
                    <mxGeometry relative="1" as="geometry">
                        <Array as="points">
                            <mxPoint x="640" y="-70"/>
                            <mxPoint x="640" y="90"/>
                            <mxPoint x="270" y="90"/>
                        </Array>
                    </mxGeometry>
                </mxCell>
                <mxCell id="30" value="Transition&lt;br&gt;" style="rounded=1;whiteSpace=wrap;html=1;fillColor=#f0a30a;strokeColor=none;fontColor=#000000;fontSize=18;" parent="1" vertex="1">
                    <mxGeometry x="650" y="-90" width="120" height="40" as="geometry"/>
                </mxCell>
                <mxCell id="36" style="edgeStyle=orthogonalEdgeStyle;rounded=0;orthogonalLoop=1;jettySize=auto;html=1;exitX=0;exitY=0.5;exitDx=0;exitDy=0;strokeColor=#000000;fontSize=15;" parent="1" source="31" edge="1">
                    <mxGeometry relative="1" as="geometry">
                        <mxPoint x="710" y="-5" as="targetPoint"/>
                    </mxGeometry>
                </mxCell>
                <mxCell id="31" value="Change&lt;br&gt;Bounds" style="rounded=1;whiteSpace=wrap;html=1;fillColor=#f0a30a;strokeColor=none;fontColor=#000000;fontSize=18;" parent="1" vertex="1">
                    <mxGeometry x="730" y="-30" width="120" height="50" as="geometry"/>
                </mxCell>
                <mxCell id="39" style="edgeStyle=orthogonalEdgeStyle;rounded=0;orthogonalLoop=1;jettySize=auto;html=1;exitX=0;exitY=0.5;exitDx=0;exitDy=0;strokeColor=#000000;fontSize=15;" parent="1" source="32" edge="1">
                    <mxGeometry relative="1" as="geometry">
                        <mxPoint x="710" y="70" as="targetPoint"/>
                    </mxGeometry>
                </mxCell>
                <mxCell id="32" value="Fade&lt;br&gt;/Explode&lt;br&gt;/Slid" style="rounded=1;whiteSpace=wrap;html=1;fillColor=#f0a30a;strokeColor=none;fontColor=#000000;fontSize=18;" parent="1" vertex="1">
                    <mxGeometry x="730" y="30" width="120" height="80" as="geometry"/>
                </mxCell>
                <mxCell id="40" style="edgeStyle=orthogonalEdgeStyle;rounded=0;orthogonalLoop=1;jettySize=auto;html=1;exitX=0;exitY=0.5;exitDx=0;exitDy=0;strokeColor=#000000;fontSize=15;" parent="1" source="33" edge="1">
                    <mxGeometry relative="1" as="geometry">
                        <mxPoint x="710" y="150" as="targetPoint"/>
                    </mxGeometry>
                </mxCell>
                <mxCell id="53" style="edgeStyle=orthogonalEdgeStyle;rounded=0;orthogonalLoop=1;jettySize=auto;html=1;exitX=0.004;exitY=0.606;exitDx=0;exitDy=0;dashed=1;dashPattern=1 1;strokeColor=#000000;strokeWidth=2;fontSize=16;fontColor=#000000;exitPerimeter=0;" parent="1" source="33" target="48" edge="1">
                    <mxGeometry relative="1" as="geometry">
                        <Array as="points">
                            <mxPoint x="731" y="150"/>
                            <mxPoint x="580" y="150"/>
                            <mxPoint x="580" y="480"/>
                            <mxPoint x="125" y="480"/>
                        </Array>
                    </mxGeometry>
                </mxCell>
                <mxCell id="33" value="MaterialContainer&lt;br&gt;Transform" style="rounded=1;whiteSpace=wrap;html=1;fillColor=#d80073;fontColor=#ffffff;fontSize=18;strokeColor=none;" parent="1" vertex="1">
                    <mxGeometry x="730" y="120" width="190" height="60" as="geometry"/>
                </mxCell>
                <mxCell id="67" style="edgeStyle=orthogonalEdgeStyle;rounded=0;orthogonalLoop=1;jettySize=auto;html=1;exitX=0;exitY=0.5;exitDx=0;exitDy=0;startSize=6;strokeColor=#000000;strokeWidth=2;fontSize=16;fontColor=#000000;" parent="1" source="34" edge="1">
                    <mxGeometry relative="1" as="geometry">
                        <mxPoint x="710" y="400.294117647059" as="targetPoint"/>
                    </mxGeometry>
                </mxCell>
                <mxCell id="34" value="..." style="rounded=1;whiteSpace=wrap;html=1;fillColor=#f0a30a;strokeColor=none;fontColor=#000000;fontSize=18;" parent="1" vertex="1">
                    <mxGeometry x="730" y="380" width="120" height="40" as="geometry"/>
                </mxCell>
                <mxCell id="74" style="edgeStyle=orthogonalEdgeStyle;rounded=0;orthogonalLoop=1;jettySize=auto;html=1;exitX=0.5;exitY=1;exitDx=0;exitDy=0;startSize=6;strokeColor=#000000;strokeWidth=2;fontSize=16;fontColor=#000000;" parent="1" source="44" target="73" edge="1">
                    <mxGeometry relative="1" as="geometry"/>
                </mxCell>
                <mxCell id="44" value="Scene 1" style="rounded=1;whiteSpace=wrap;html=1;fillColor=#f0a30a;strokeColor=none;fontColor=#000000;fontSize=18;" parent="1" vertex="1">
                    <mxGeometry x="960" y="-60" width="120" height="40" as="geometry"/>
                </mxCell>
                <mxCell id="46" value="MotionLayout" style="rounded=1;whiteSpace=wrap;html=1;strokeColor=#000000;strokeWidth=2;fillColor=none;gradientColor=none;fontSize=16;fontColor=#000000;verticalAlign=top;" parent="1" vertex="1">
                    <mxGeometry x="-670" y="-210" width="430" height="650" as="geometry"/>
                </mxCell>
                <mxCell id="47" value="Material Design. Motion" style="rounded=1;whiteSpace=wrap;html=1;fontSize=15;dashed=1;strokeWidth=3;verticalAlign=top;gradientColor=#ffd966;fillColor=none;strokeColor=#CC0066;fontColor=#000000;" parent="1" vertex="1">
                    <mxGeometry x="-35" y="530" width="565" height="340" as="geometry"/>
                </mxCell>
                <mxCell id="48" value="Container&lt;br&gt;Transform" style="rounded=1;whiteSpace=wrap;html=1;fillColor=#d80073;fontColor=#ffffff;fontSize=18;strokeColor=none;" parent="1" vertex="1">
                    <mxGeometry x="30" y="600" width="190" height="60" as="geometry"/>
                </mxCell>
                <mxCell id="50" value="Shared axis" style="rounded=1;whiteSpace=wrap;html=1;fillColor=#d80073;fontColor=#ffffff;fontSize=18;strokeColor=none;" parent="1" vertex="1">
                    <mxGeometry x="30" y="730" width="190" height="60" as="geometry"/>
                </mxCell>
                <mxCell id="51" value="Fade through" style="rounded=1;whiteSpace=wrap;html=1;fillColor=#d80073;fontColor=#ffffff;fontSize=18;strokeColor=none;" parent="1" vertex="1">
                    <mxGeometry x="270" y="730" width="190" height="60" as="geometry"/>
                </mxCell>
                <mxCell id="52" value="Fade" style="rounded=1;whiteSpace=wrap;html=1;fillColor=#d80073;fontColor=#ffffff;fontSize=18;strokeColor=none;" parent="1" vertex="1">
                    <mxGeometry x="270" y="600" width="190" height="60" as="geometry"/>
                </mxCell>
                <mxCell id="54" value="" style="endArrow=none;html=1;strokeColor=#000000;strokeWidth=2;fontSize=16;fontColor=#000000;entryX=0.5;entryY=1;entryDx=0;entryDy=0;" parent="1" target="30" edge="1">
                    <mxGeometry width="50" height="50" relative="1" as="geometry">
                        <mxPoint x="710" y="420" as="sourcePoint"/>
                        <mxPoint x="590" y="140" as="targetPoint"/>
                    </mxGeometry>
                </mxCell>
                <mxCell id="59" style="edgeStyle=orthogonalEdgeStyle;rounded=0;orthogonalLoop=1;jettySize=auto;html=1;exitX=0;exitY=0.5;exitDx=0;exitDy=0;entryX=1;entryY=0.5;entryDx=0;entryDy=0;dashed=1;dashPattern=1 1;startSize=6;strokeColor=#000000;strokeWidth=2;fontSize=16;fontColor=#000000;" parent="1" source="55" target="52" edge="1">
                    <mxGeometry relative="1" as="geometry"/>
                </mxCell>
                <mxCell id="71" style="edgeStyle=orthogonalEdgeStyle;rounded=0;orthogonalLoop=1;jettySize=auto;html=1;exitX=0;exitY=0.5;exitDx=0;exitDy=0;startSize=6;strokeColor=#000000;strokeWidth=2;fontSize=16;fontColor=#000000;" parent="1" source="55" edge="1">
                    <mxGeometry relative="1" as="geometry">
                        <mxPoint x="710" y="220.29411764705878" as="targetPoint"/>
                    </mxGeometry>
                </mxCell>
                <mxCell id="55" value="MaterialFade" style="rounded=1;whiteSpace=wrap;html=1;fillColor=#d80073;fontColor=#ffffff;fontSize=18;strokeColor=none;" parent="1" vertex="1">
                    <mxGeometry x="730" y="200" width="130" height="40" as="geometry"/>
                </mxCell>
                <mxCell id="60" style="edgeStyle=orthogonalEdgeStyle;rounded=0;orthogonalLoop=1;jettySize=auto;html=1;exitX=0;exitY=0.5;exitDx=0;exitDy=0;dashed=1;dashPattern=1 1;startSize=6;strokeColor=#000000;strokeWidth=2;fontSize=16;fontColor=#000000;" parent="1" source="56" target="51" edge="1">
                    <mxGeometry relative="1" as="geometry">
                        <Array as="points">
                            <mxPoint x="730" y="280"/>
                            <mxPoint x="650" y="280"/>
                            <mxPoint x="650" y="880"/>
                            <mxPoint x="385" y="880"/>
                        </Array>
                    </mxGeometry>
                </mxCell>
                <mxCell id="70" style="edgeStyle=orthogonalEdgeStyle;rounded=0;orthogonalLoop=1;jettySize=auto;html=1;exitX=0;exitY=0.5;exitDx=0;exitDy=0;startSize=6;strokeColor=#000000;strokeWidth=2;fontSize=16;fontColor=#000000;" parent="1" source="56" edge="1">
                    <mxGeometry relative="1" as="geometry">
                        <mxPoint x="710" y="285" as="targetPoint"/>
                    </mxGeometry>
                </mxCell>
                <mxCell id="56" value="MaterialFade&lt;br&gt;Through" style="rounded=1;whiteSpace=wrap;html=1;fillColor=#d80073;fontColor=#ffffff;fontSize=18;strokeColor=none;" parent="1" vertex="1">
                    <mxGeometry x="730" y="255" width="130" height="60" as="geometry"/>
                </mxCell>
                <mxCell id="61" style="edgeStyle=orthogonalEdgeStyle;rounded=0;orthogonalLoop=1;jettySize=auto;html=1;exitX=0;exitY=0.5;exitDx=0;exitDy=0;entryX=0.5;entryY=1;entryDx=0;entryDy=0;dashed=1;dashPattern=1 1;startSize=6;strokeColor=#000000;strokeWidth=2;fontSize=16;fontColor=#000000;" parent="1" source="58" target="50" edge="1">
                    <mxGeometry relative="1" as="geometry">
                        <Array as="points">
                            <mxPoint x="690" y="345"/>
                            <mxPoint x="690" y="990"/>
                            <mxPoint x="115" y="990"/>
                            <mxPoint x="115" y="790"/>
                        </Array>
                    </mxGeometry>
                </mxCell>
                <mxCell id="68" style="edgeStyle=orthogonalEdgeStyle;rounded=0;orthogonalLoop=1;jettySize=auto;html=1;exitX=0;exitY=0.5;exitDx=0;exitDy=0;startSize=6;strokeColor=#000000;strokeWidth=2;fontSize=16;fontColor=#000000;" parent="1" source="58" edge="1">
                    <mxGeometry relative="1" as="geometry">
                        <mxPoint x="710" y="345" as="targetPoint"/>
                    </mxGeometry>
                </mxCell>
                <mxCell id="58" value="MaterialShareAxis" style="rounded=1;whiteSpace=wrap;html=1;fillColor=#d80073;fontColor=#ffffff;fontSize=18;strokeColor=none;" parent="1" vertex="1">
                    <mxGeometry x="730" y="325" width="160" height="40" as="geometry"/>
                </mxCell>
                <mxCell id="63" value="Property Animations" style="rounded=1;fontSize=16;strokeColor=#006EAF;dashed=1;strokeWidth=3;labelBackgroundColor=none;verticalAlign=top;fillColor=none;fontColor=#000000;" parent="1" vertex="1">
                    <mxGeometry x="-685" y="490" width="535" height="640" as="geometry"/>
                </mxCell>
                <mxCell id="73" value="Scene 2" style="rounded=1;whiteSpace=wrap;html=1;fillColor=#f0a30a;strokeColor=none;fontColor=#000000;fontSize=18;" parent="1" vertex="1">
                    <mxGeometry x="960" y="80" width="120" height="40" as="geometry"/>
                </mxCell>
                <mxCell id="75" value="" style="endArrow=classic;html=1;strokeColor=#000000;strokeWidth=2;fontSize=16;fontColor=#000000;entryX=0.5;entryY=1;entryDx=0;entryDy=0;" parent="1" target="29" edge="1">
                    <mxGeometry width="50" height="50" relative="1" as="geometry">
                        <mxPoint x="1020" y="20" as="sourcePoint"/>
                        <mxPoint x="780" y="-100" as="targetPoint"/>
                        <Array as="points">
                            <mxPoint x="885" y="20"/>
                        </Array>
                    </mxGeometry>
                </mxCell>
                <mxCell id="86" style="edgeStyle=orthogonalEdgeStyle;rounded=0;orthogonalLoop=1;jettySize=auto;html=1;exitX=0.5;exitY=1;exitDx=0;exitDy=0;entryX=0.5;entryY=0;entryDx=0;entryDy=0;startSize=6;strokeColor=#000000;strokeWidth=2;fontSize=16;fontColor=#FFFFFF;" parent="1" source="77" target="85" edge="1">
                    <mxGeometry relative="1" as="geometry"/>
                </mxCell>
                <mxCell id="77" value="AnimatorSet" style="rounded=1;whiteSpace=wrap;html=1;labelBackgroundColor=none;strokeWidth=1;fillColor=#1ba1e2;fontSize=16;fontColor=#ffffff;strokeColor=none;" parent="1" vertex="1">
                    <mxGeometry x="-670" y="560" width="120" height="60" as="geometry"/>
                </mxCell>
                <mxCell id="87" style="edgeStyle=orthogonalEdgeStyle;rounded=0;orthogonalLoop=1;jettySize=auto;html=1;exitX=0.5;exitY=1;exitDx=0;exitDy=0;startSize=6;strokeColor=#000000;strokeWidth=2;fontSize=16;fontColor=#FFFFFF;" parent="1" source="78" target="85" edge="1">
                    <mxGeometry relative="1" as="geometry"/>
                </mxCell>
                <mxCell id="78" value="ObjectAnimator" style="rounded=1;whiteSpace=wrap;html=1;labelBackgroundColor=none;strokeWidth=1;fillColor=#1ba1e2;fontSize=16;fontColor=#ffffff;strokeColor=none;" parent="1" vertex="1">
                    <mxGeometry x="-545" y="560" width="120" height="60" as="geometry"/>
                </mxCell>
                <mxCell id="88" style="edgeStyle=orthogonalEdgeStyle;rounded=0;orthogonalLoop=1;jettySize=auto;html=1;exitX=0.5;exitY=1;exitDx=0;exitDy=0;startSize=6;strokeColor=#000000;strokeWidth=2;fontSize=16;fontColor=#FFFFFF;entryX=0.5;entryY=0;entryDx=0;entryDy=0;" parent="1" source="80" target="85" edge="1">
                    <mxGeometry relative="1" as="geometry">
                        <mxPoint x="-430" y="660" as="targetPoint"/>
                    </mxGeometry>
                </mxCell>
                <mxCell id="80" value="ValueAnimator" style="rounded=1;whiteSpace=wrap;html=1;labelBackgroundColor=none;strokeWidth=1;fillColor=#1ba1e2;fontSize=16;fontColor=#ffffff;strokeColor=none;" parent="1" vertex="1">
                    <mxGeometry x="-420" y="560" width="120" height="60" as="geometry"/>
                </mxCell>
                <mxCell id="89" style="edgeStyle=orthogonalEdgeStyle;rounded=0;orthogonalLoop=1;jettySize=auto;html=1;exitX=0.5;exitY=1;exitDx=0;exitDy=0;entryX=0.5;entryY=0;entryDx=0;entryDy=0;startSize=6;strokeColor=#000000;strokeWidth=2;fontSize=16;fontColor=#FFFFFF;" parent="1" source="84" target="85" edge="1">
                    <mxGeometry relative="1" as="geometry"/>
                </mxCell>
                <mxCell id="84" value="TimeAnimator" style="rounded=1;whiteSpace=wrap;html=1;labelBackgroundColor=none;strokeWidth=1;fillColor=#1ba1e2;fontSize=16;fontColor=#ffffff;strokeColor=none;" parent="1" vertex="1">
                    <mxGeometry x="-290" y="560" width="120" height="60" as="geometry"/>
                </mxCell>
                <mxCell id="85" value="Animator" style="rounded=1;whiteSpace=wrap;html=1;labelBackgroundColor=none;strokeWidth=1;fillColor=#1ba1e2;fontSize=16;fontColor=#ffffff;strokeColor=none;" parent="1" vertex="1">
                    <mxGeometry x="-485" y="660" width="120" height="60" as="geometry"/>
                </mxCell>
                <mxCell id="90" value="Time&lt;br&gt;Interpolator" style="ellipse;whiteSpace=wrap;html=1;aspect=fixed;rounded=1;labelBackgroundColor=none;strokeWidth=1;fillColor=#1ba1e2;fontSize=16;fontColor=#ffffff;strokeColor=none;" parent="1" vertex="1">
                    <mxGeometry x="-580" y="880" width="110" height="110" as="geometry"/>
                </mxCell>
                <mxCell id="93" value="Type&lt;br&gt;Evaluator" style="ellipse;whiteSpace=wrap;html=1;aspect=fixed;rounded=1;labelBackgroundColor=none;strokeWidth=1;fillColor=#1ba1e2;fontSize=16;fontColor=#ffffff;strokeColor=none;" parent="1" vertex="1">
                    <mxGeometry x="-410" y="880" width="110" height="110" as="geometry"/>
                </mxCell>
                <mxCell id="94" value="KeyframeSet" style="rounded=1;whiteSpace=wrap;html=1;labelBackgroundColor=none;strokeWidth=1;fillColor=#1ba1e2;fontSize=16;fontColor=#ffffff;strokeColor=none;" parent="1" vertex="1">
                    <mxGeometry x="-630" y="730" width="120" height="60" as="geometry"/>
                </mxCell>
            </root>
        </mxGraphModel>
    </diagram>
</mxfile>